# xmcd
# 
# Track frame offsets:
#     150
#     21662
#     45337
#     65087
#     89325
#     107700
#     131000
#     153332
#     176850
#     199600
# 
# Disc length: 2922
# 
# Revision: 1
# Processed by: cddbd v1.5.2PL0 Copyright (c) Steve Scherf et al.
# Submitted via: fre:ac v1.0.31
# 
DISCID=8a0b680a
DTITLE=岡村孝子 - BRAND-NEW
DYEAR=1996
DGENRE=Japanese Pop
TTITLE0=Winter Story
TTITLE1=Single Life
TTITLE2=オジリナルな二人
TTITLE3=明日の風
TTITLE4=思い出に変わる時
TTITLE5=ホームタウン
TTITLE6=Brand-new Days
TTITLE7=いつも心に太陽を
TTITLE8=愛という名の翼
TTITLE9=ヒロイン ～あの日の涙を忘れない～ (Album version)
EXTD=YEAR: 1996
EXTT0=
EXTT1=
EXTT2=
EXTT3=
EXTT4=
EXTT5=
EXTT6=
EXTT7=
EXTT8=
EXTT9=
PLAYORDER=
